# Blender v2.92.0 OBJ File: ''
# www.blender.org
mtllib 6PanelDoor.mtl
o doormesh
v 0.381000 0.000000 0.015875
v 0.381000 2.032000 0.015875
v 0.381000 1.868214 0.015875
v 0.381000 1.663315 0.015875
v 0.381000 1.556453 0.015875
v 0.381000 0.991032 0.015875
v 0.381000 0.852545 0.015875
v 0.381000 0.290286 0.015875
v 0.076200 0.000000 0.015875
v 0.264704 0.000000 0.015875
v 0.264704 2.032000 0.015875
v 0.076200 2.032000 0.015875
v 0.241454 0.313536 0.004875
v 0.099450 0.313536 0.004875
v 0.241454 0.829295 0.004875
v 0.099450 0.829295 0.004875
v 0.241454 1.014282 0.004875
v 0.099450 1.014282 0.004875
v 0.241454 1.533203 0.004875
v 0.099450 1.533203 0.004875
v 0.241454 1.686566 0.004875
v 0.099450 1.686566 0.004875
v 0.241454 1.844963 0.004875
v 0.099450 1.844963 0.004875
v 0.264704 0.290286 0.015875
v 0.076200 0.290286 0.015875
v 0.264704 0.852545 0.015875
v 0.076200 0.852545 0.015875
v 0.264704 0.991032 0.015875
v 0.076200 0.991032 0.015875
v 0.264704 1.556453 0.015875
v 0.076200 1.556453 0.015875
v 0.264704 1.663315 0.015875
v 0.076200 1.663315 0.015875
v 0.264704 1.868214 0.015875
v 0.076200 1.868214 0.015875
v 0.226543 0.339324 0.015875
v 0.114361 0.339324 0.015875
v 0.226543 0.803507 0.015875
v 0.114361 0.803507 0.015875
v 0.220934 1.040228 0.015875
v 0.119970 1.040228 0.015875
v 0.220934 1.507257 0.015875
v 0.119970 1.507257 0.015875
v 0.226543 1.718245 0.015875
v 0.114361 1.718245 0.015875
v 0.226543 1.813284 0.015875
v 0.114361 1.813284 0.015875
v -0.381000 0.000000 0.015875
v -0.381000 2.032000 0.015875
v -0.381000 1.868214 0.015875
v -0.381000 1.663315 0.015875
v -0.381000 1.556453 0.015875
v -0.381000 0.991032 0.015875
v -0.381000 0.852545 0.015875
v -0.381000 0.290286 0.015875
v -0.076200 0.000000 0.015875
v -0.264704 0.000000 0.015875
v -0.264704 2.032000 0.015875
v -0.076200 2.032000 0.015875
v -0.241454 0.313536 0.004875
v -0.099450 0.313536 0.004875
v -0.241454 0.829295 0.004875
v -0.099450 0.829295 0.004875
v -0.241454 1.014282 0.004875
v -0.099450 1.014282 0.004875
v -0.241454 1.533203 0.004875
v -0.099450 1.533203 0.004875
v -0.241454 1.686566 0.004875
v -0.099450 1.686566 0.004875
v -0.241454 1.844963 0.004875
v -0.099450 1.844963 0.004875
v 0.000000 0.000000 0.015875
v 0.000000 2.032000 0.015875
v 0.000000 0.290286 0.015875
v 0.000000 0.852545 0.015875
v 0.000000 0.991032 0.015875
v 0.000000 1.556453 0.015875
v 0.000000 1.663315 0.015875
v 0.000000 1.868214 0.015875
v -0.264704 0.290286 0.015875
v -0.076200 0.290286 0.015875
v -0.264704 0.852545 0.015875
v -0.076200 0.852545 0.015875
v -0.264704 0.991032 0.015875
v -0.076200 0.991032 0.015875
v -0.264704 1.556453 0.015875
v -0.076200 1.556453 0.015875
v -0.264704 1.663315 0.015875
v -0.076200 1.663315 0.015875
v -0.264704 1.868214 0.015875
v -0.076200 1.868214 0.015875
v -0.226543 0.339324 0.015875
v -0.114361 0.339324 0.015875
v -0.226543 0.803507 0.015875
v -0.114361 0.803507 0.015875
v -0.220934 1.040228 0.015875
v -0.119970 1.040228 0.015875
v -0.220934 1.507257 0.015875
v -0.119970 1.507257 0.015875
v -0.226543 1.718245 0.015875
v -0.114361 1.718245 0.015875
v -0.226543 1.813284 0.015875
v -0.114361 1.813284 0.015875
v 0.381000 0.000000 -0.015875
v 0.381000 2.032000 -0.015875
v 0.381000 1.868214 -0.015875
v 0.381000 1.663315 -0.015875
v 0.381000 1.556453 -0.015875
v 0.381000 0.991032 -0.015875
v 0.381000 0.852545 -0.015875
v 0.264704 0.000000 -0.015875
v 0.076200 2.032000 -0.015875
v 0.241454 0.313536 -0.004875
v 0.099450 0.313536 -0.004875
v 0.241454 0.829295 -0.004875
v 0.099450 0.829295 -0.004875
v 0.241454 1.014282 -0.004875
v 0.099450 1.014282 -0.004875
v 0.241454 1.533203 -0.004875
v 0.099450 1.533203 -0.004875
v 0.241454 1.686566 -0.004875
v 0.099450 1.686566 -0.004875
v 0.241454 1.844963 -0.004875
v 0.099450 1.844963 -0.004875
v 0.381000 0.290286 -0.015875
v 0.264704 2.032000 -0.015875
v 0.076200 0.000000 -0.015875
v 0.264704 0.290286 -0.015875
v 0.076200 0.290286 -0.015875
v 0.264704 0.852545 -0.015875
v 0.076200 0.852545 -0.015875
v 0.264704 0.991032 -0.015875
v 0.076200 0.991032 -0.015875
v 0.264704 1.556453 -0.015875
v 0.076200 1.556453 -0.015875
v 0.264704 1.663315 -0.015875
v 0.076200 1.663315 -0.015875
v 0.264704 1.868214 -0.015875
v 0.076200 1.868214 -0.015875
v 0.226543 0.339324 -0.015875
v 0.114361 0.339324 -0.015875
v 0.226543 0.803507 -0.015875
v 0.114361 0.803507 -0.015875
v 0.220934 1.040228 -0.015875
v 0.119970 1.040228 -0.015875
v 0.220934 1.507257 -0.015875
v 0.119970 1.507257 -0.015875
v 0.226543 1.718245 -0.015875
v 0.114361 1.718245 -0.015875
v 0.226543 1.813284 -0.015875
v 0.114361 1.813284 -0.015875
v -0.381000 2.032000 -0.015875
v -0.381000 1.556453 -0.015875
v -0.381000 0.991032 -0.015875
v -0.381000 0.852545 -0.015875
v -0.076200 0.000000 -0.015875
v -0.264704 0.000000 -0.015875
v -0.241454 0.313536 -0.004875
v -0.099450 0.313536 -0.004875
v -0.241454 0.829295 -0.004875
v -0.099450 0.829295 -0.004875
v -0.241454 1.014282 -0.004875
v -0.099450 1.014282 -0.004875
v -0.241454 1.533203 -0.004875
v -0.099450 1.533203 -0.004875
v -0.241454 1.686566 -0.004875
v -0.099450 1.686566 -0.004875
v -0.241454 1.844963 -0.004875
v -0.099450 1.844963 -0.004875
v -0.381000 0.000000 -0.015875
v -0.381000 0.290286 -0.015875
v -0.381000 1.663315 -0.015875
v -0.381000 1.868214 -0.015875
v -0.264704 2.032000 -0.015875
v -0.076200 2.032000 -0.015875
v 0.000000 2.032000 -0.015875
v 0.000000 0.290286 -0.015875
v 0.000000 0.852545 -0.015875
v 0.000000 0.991032 -0.015875
v 0.000000 1.556453 -0.015875
v 0.000000 1.663315 -0.015875
v 0.000000 1.868214 -0.015875
v 0.000000 0.000000 -0.015875
v -0.264704 0.290286 -0.015875
v -0.076200 0.290286 -0.015875
v -0.264704 0.852545 -0.015875
v -0.076200 0.852545 -0.015875
v -0.264704 0.991032 -0.015875
v -0.076200 0.991032 -0.015875
v -0.264704 1.556453 -0.015875
v -0.076200 1.556453 -0.015875
v -0.264704 1.663315 -0.015875
v -0.076200 1.663315 -0.015875
v -0.264704 1.868214 -0.015875
v -0.076200 1.868214 -0.015875
v -0.226543 0.339324 -0.015875
v -0.114361 0.339324 -0.015875
v -0.226543 0.803507 -0.015875
v -0.114361 0.803507 -0.015875
v -0.220934 1.040228 -0.015875
v -0.119970 1.040228 -0.015875
v -0.220934 1.507257 -0.015875
v -0.119970 1.507257 -0.015875
v -0.226543 1.718245 -0.015875
v -0.114361 1.718245 -0.015875
v -0.226543 1.813284 -0.015875
v -0.114361 1.813284 -0.015875
vt 0.984707 0.872470
vt 0.984707 0.948946
vt 0.969883 0.948946
vt 0.969883 0.872470
vt 0.301651 0.725665
vt 0.355953 0.725665
vt 0.355953 0.740490
vt 0.301651 0.740490
vt 0.984707 0.000156
vt 0.984707 0.135699
vt 0.969882 0.135699
vt 0.969882 0.000156
vt 0.984707 0.398231
vt 0.969883 0.398231
vt 0.984707 0.462894
vt 0.969883 0.462894
vt 0.984707 0.726902
vt 0.969883 0.726902
vt 0.984707 0.776798
vt 0.969883 0.776798
vt 0.175174 0.362599
vt 0.078051 0.362561
vt 0.078271 0.307688
vt 0.175308 0.307854
vt 0.163238 0.296014
vt 0.090164 0.295733
vt 0.105301 0.287331
vt 0.147817 0.287647
vt 0.225453 0.362451
vt 0.225852 0.308006
vt 0.175407 0.217368
vt 0.226088 0.217004
vt 0.489627 0.362503
vt 0.489484 0.308201
vt 0.238186 0.228813
vt 0.477697 0.228898
vt 0.464674 0.239670
vt 0.251312 0.239433
vt 0.554707 0.362301
vt 0.555061 0.308065
vt 0.489713 0.216946
vt 0.555290 0.216812
vt 0.816589 0.362417
vt 0.816240 0.307800
vt 0.477362 0.296357
vt 0.464211 0.285707
vt 0.954434 0.361395
vt 0.954024 0.306171
vt 0.816309 0.216788
vt 0.953521 0.216872
vt 0.985019 0.355953
vt 0.985019 0.301652
vt 0.999844 0.301652
vt 0.999844 0.355953
vt 0.985019 0.213634
vt 0.999844 0.213634
vt 0.178054 0.725665
vt 0.213634 0.725665
vt 0.213634 0.740490
vt 0.178054 0.740490
vt 0.000623 0.362579
vt 0.000529 0.307878
vt 0.000185 0.217835
vt 0.078291 0.217550
vt 0.000156 0.181388
vt 0.078281 0.181384
vt 0.985019 0.178055
vt 0.999844 0.178055
vt 0.816430 0.181347
vt 0.953470 0.181346
vt 0.555211 0.181355
vt 0.489904 0.181359
vt 0.225986 0.181374
vt 0.175536 0.181377
vt 0.804153 0.296090
vt 0.804361 0.228598
vt 0.567369 0.228554
vt 0.567061 0.296230
vt 0.237849 0.296092
vt 0.163472 0.229398
vt 0.090348 0.229327
vt 0.105752 0.237642
vt 0.148302 0.237858
vt 0.250849 0.285352
vt 0.791051 0.287752
vt 0.579967 0.287740
vt 0.580476 0.236915
vt 0.791501 0.237071
vt 0.969570 0.076632
vt 0.954745 0.076632
vt 0.954746 0.000156
vt 0.969571 0.000156
vt 0.054457 0.725665
vt 0.054457 0.740490
vt 0.000156 0.740490
vt 0.000156 0.725665
vt 0.969570 0.948946
vt 0.954746 0.948946
vt 0.954746 0.813406
vt 0.969570 0.813406
vt 0.954745 0.550876
vt 0.969570 0.550876
vt 0.954745 0.486213
vt 0.969570 0.486213
vt 0.954745 0.222202
vt 0.969570 0.222202
vt 0.954745 0.172305
vt 0.969570 0.172305
vt 0.175150 0.000156
vt 0.175291 0.054900
vt 0.078255 0.055080
vt 0.078027 0.000206
vt 0.163223 0.066742
vt 0.147804 0.075111
vt 0.105287 0.075433
vt 0.090150 0.067033
vt 0.225431 0.000297
vt 0.225837 0.054742
vt 0.226083 0.145744
vt 0.175402 0.145387
vt 0.489609 0.000212
vt 0.489471 0.054515
vt 0.238180 0.133934
vt 0.251305 0.123312
vt 0.464668 0.123050
vt 0.477692 0.133821
vt 0.554691 0.000407
vt 0.555049 0.054644
vt 0.555287 0.145898
vt 0.489709 0.145771
vt 0.816582 0.000273
vt 0.816235 0.054892
vt 0.464200 0.077013
vt 0.477350 0.066361
vt 0.954433 0.001291
vt 0.954024 0.056518
vt 0.953522 0.145819
vt 0.816307 0.145906
vt 0.985019 0.000156
vt 0.999844 0.000156
vt 0.999844 0.054458
vt 0.985019 0.054458
vt 0.999844 0.142475
vt 0.985019 0.142475
vt 0.142475 0.740490
vt 0.142475 0.725665
vt 0.000513 0.054900
vt 0.000600 0.000199
vt 0.078286 0.145217
vt 0.000181 0.144942
vt 0.804149 0.066603
vt 0.804359 0.134096
vt 0.567365 0.134156
vt 0.567051 0.066480
vt 0.237835 0.066655
vt 0.163466 0.133358
vt 0.090342 0.133439
vt 0.148295 0.124900
vt 0.105745 0.125122
vt 0.250837 0.077393
vt 0.791047 0.074942
vt 0.791499 0.125624
vt 0.580471 0.125794
vt 0.579958 0.074969
vt 0.175149 0.362910
vt 0.175291 0.417655
vt 0.078253 0.417836
vt 0.078025 0.362961
vt 0.163222 0.429498
vt 0.147803 0.437867
vt 0.105286 0.438189
vt 0.090148 0.429789
vt 0.225430 0.363051
vt 0.225836 0.417497
vt 0.226083 0.508500
vt 0.175401 0.508143
vt 0.489610 0.362969
vt 0.489472 0.417272
vt 0.238180 0.496689
vt 0.251305 0.486068
vt 0.464668 0.485806
vt 0.477692 0.496577
vt 0.554692 0.363164
vt 0.555050 0.417402
vt 0.555288 0.508656
vt 0.489709 0.508528
vt 0.816583 0.363033
vt 0.816236 0.417652
vt 0.464201 0.439769
vt 0.477351 0.429117
vt 0.954433 0.364051
vt 0.954024 0.419277
vt 0.953522 0.508578
vt 0.816307 0.508665
vt 0.000510 0.417657
vt 0.000596 0.362955
vt 0.078286 0.507974
vt 0.000179 0.507701
vt 0.078281 0.544141
vt 0.000156 0.544147
vt 0.953470 0.544105
vt 0.816430 0.544106
vt 0.555211 0.544113
vt 0.489904 0.544115
vt 0.225986 0.544130
vt 0.175536 0.544133
vt 0.804150 0.429362
vt 0.804359 0.496855
vt 0.567365 0.496913
vt 0.567052 0.429237
vt 0.237834 0.429410
vt 0.163466 0.496114
vt 0.090341 0.496195
vt 0.148294 0.487656
vt 0.105744 0.487879
vt 0.250837 0.440149
vt 0.791047 0.437701
vt 0.791499 0.488383
vt 0.580472 0.488551
vt 0.579959 0.437726
vt 0.175174 0.725353
vt 0.078053 0.725316
vt 0.078273 0.670444
vt 0.175308 0.670610
vt 0.163238 0.658769
vt 0.090166 0.658489
vt 0.105302 0.650087
vt 0.147818 0.650403
vt 0.225453 0.725206
vt 0.225853 0.670761
vt 0.175407 0.580123
vt 0.226088 0.579760
vt 0.489626 0.725259
vt 0.489483 0.670958
vt 0.238186 0.591569
vt 0.477696 0.591654
vt 0.464674 0.602426
vt 0.251312 0.602188
vt 0.554706 0.725058
vt 0.555060 0.670822
vt 0.489713 0.579703
vt 0.555290 0.579570
vt 0.816588 0.725176
vt 0.816239 0.670559
vt 0.477362 0.659114
vt 0.464210 0.648463
vt 0.954433 0.724155
vt 0.954023 0.668931
vt 0.816308 0.579547
vt 0.953521 0.579632
vt 0.000627 0.725335
vt 0.000532 0.670634
vt 0.000187 0.580594
vt 0.078291 0.580307
vt 0.804153 0.658849
vt 0.804360 0.591357
vt 0.567369 0.591312
vt 0.567060 0.658987
vt 0.237849 0.658847
vt 0.163473 0.592154
vt 0.090349 0.592084
vt 0.105753 0.600398
vt 0.148302 0.600614
vt 0.250849 0.648107
vt 0.791051 0.650511
vt 0.579967 0.650497
vt 0.580476 0.599672
vt 0.791501 0.599830
vn 1.0000 0.0000 0.0000
vn 0.0000 -1.0000 0.0000
vn 0.0000 0.0000 1.0000
vn 0.5937 0.0000 0.8047
vn -0.4725 0.0000 0.8813
vn 0.0000 -0.3903 0.9207
vn 0.0000 1.0000 0.0000
vn 0.0000 0.4277 0.9039
vn 0.0000 -0.4277 0.9039
vn -0.4277 0.0000 0.9039
vn 0.4277 0.0000 0.9039
vn 0.0000 0.3903 0.9207
vn -0.0000 -0.3924 0.9198
vn -0.5937 0.0000 0.8047
vn 0.0000 -0.3280 0.9447
vn 0.0000 0.3924 0.9198
vn 0.4725 0.0000 0.8813
vn 0.0000 0.3280 0.9447
vn -1.0000 0.0000 0.0000
vn 0.0000 0.0000 -1.0000
vn 0.5937 0.0000 -0.8047
vn -0.4725 0.0000 -0.8813
vn 0.0000 -0.3903 -0.9207
vn 0.0000 0.4277 -0.9039
vn 0.0000 -0.4277 -0.9039
vn -0.4277 0.0000 -0.9039
vn 0.4277 0.0000 -0.9039
vn 0.0000 0.3903 -0.9207
vn -0.0000 -0.3924 -0.9198
vn -0.5937 0.0000 -0.8047
vn 0.0000 -0.3280 -0.9447
vn 0.0000 0.3924 -0.9198
vn 0.4725 0.0000 -0.8813
vn 0.0000 0.3280 -0.9447
usemtl None
s off
f 107/1/1 106/2/1 2/3/1 3/4/1
f 112/5/2 105/6/2 1/7/2 10/8/2
f 105/9/1 126/10/1 8/11/1 1/12/1
f 126/10/1 111/13/1 7/14/1 8/11/1
f 111/13/1 110/15/1 6/16/1 7/14/1
f 110/15/1 109/17/1 5/18/1 6/16/1
f 109/17/1 108/19/1 4/20/1 5/18/1
f 108/19/1 107/1/1 3/4/1 4/20/1
f 4/21/3 3/22/3 35/23/3 33/24/3
f 21/25/4 23/26/4 47/27/4 45/28/4
f 5/29/3 4/21/3 33/24/3 31/30/3
f 31/30/3 33/24/3 34/31/3 32/32/3
f 6/33/3 5/29/3 31/30/3 29/34/3
f 20/35/5 18/36/5 42/37/5 44/38/5
f 7/39/3 6/33/3 29/34/3 27/40/3
f 27/40/3 29/34/3 30/41/3 28/42/3
f 8/43/3 7/39/3 27/40/3 25/44/3
f 18/36/6 17/45/6 41/46/6 42/37/6
f 1/47/3 8/43/3 25/44/3 10/48/3
f 10/48/3 25/44/3 26/49/3 9/50/3
f 106/51/7 127/52/7 11/53/7 2/54/7
f 127/52/7 113/55/7 12/56/7 11/53/7
f 184/57/2 128/58/2 9/59/2 73/60/2
f 128/58/2 112/5/2 10/8/2 9/59/2
f 3/22/3 2/61/3 11/62/3 35/23/3
f 35/23/3 11/62/3 12/63/3 36/64/3
f 36/64/3 12/63/3 74/65/3 80/66/3
f 113/55/7 177/67/7 74/68/7 12/56/7
f 9/50/3 26/49/3 75/69/3 73/70/3
f 26/49/3 28/42/3 76/71/3 75/69/3
f 28/42/3 30/41/3 77/72/3 76/71/3
f 30/41/3 32/32/3 78/73/3 77/72/3
f 32/32/3 34/31/3 79/74/3 78/73/3
f 34/31/3 36/64/3 80/66/3 79/74/3
f 13/75/8 14/76/8 26/49/8 25/44/8
f 16/77/9 15/78/9 27/40/9 28/42/9
f 17/45/8 18/36/8 30/41/8 29/34/8
f 20/35/9 19/79/9 31/30/9 32/32/9
f 21/25/8 22/80/8 34/31/8 33/24/8
f 24/81/9 23/26/9 35/23/9 36/64/9
f 23/26/10 21/25/10 33/24/10 35/23/10
f 22/80/11 24/81/11 36/64/11 34/31/11
f 19/79/10 17/45/10 29/34/10 31/30/10
f 18/36/11 20/35/11 32/32/11 30/41/11
f 15/78/10 13/75/10 25/44/10 27/40/10
f 14/76/11 16/77/11 28/42/11 26/49/11
f 45/28/3 47/27/3 48/82/3 46/83/3
f 41/46/3 43/84/3 44/38/3 42/37/3
f 37/85/3 39/86/3 40/87/3 38/88/3
f 19/79/12 20/35/12 44/38/12 43/84/12
f 13/75/4 15/78/4 39/86/4 37/85/4
f 14/76/13 13/75/13 37/85/13 38/88/13
f 24/81/14 22/80/14 46/83/14 48/82/14
f 22/80/15 21/25/15 45/28/15 46/83/15
f 16/77/14 14/76/14 38/88/14 40/87/14
f 15/78/16 16/77/16 40/87/16 39/86/16
f 17/45/17 19/79/17 43/84/17 41/46/17
f 23/26/18 24/81/18 48/82/18 47/27/18
f 174/89/19 51/90/19 50/91/19 153/92/19
f 158/93/2 58/94/2 49/95/2 171/96/2
f 171/97/19 49/98/19 56/99/19 172/100/19
f 172/100/19 56/99/19 55/101/19 156/102/19
f 156/102/19 55/101/19 54/103/19 155/104/19
f 155/104/19 54/103/19 53/105/19 154/106/19
f 154/106/19 53/105/19 52/107/19 173/108/19
f 173/108/19 52/107/19 51/90/19 174/89/19
f 52/109/3 89/110/3 91/111/3 51/112/3
f 69/113/14 101/114/14 103/115/14 71/116/14
f 53/117/3 87/118/3 89/110/3 52/109/3
f 87/118/3 88/119/3 90/120/3 89/110/3
f 54/121/3 85/122/3 87/118/3 53/117/3
f 68/123/17 100/124/17 98/125/17 66/126/17
f 55/127/3 83/128/3 85/122/3 54/121/3
f 83/128/3 84/129/3 86/130/3 85/122/3
f 56/131/3 81/132/3 83/128/3 55/127/3
f 66/126/6 98/125/6 97/133/6 65/134/6
f 49/135/3 58/136/3 81/132/3 56/131/3
f 58/136/3 57/137/3 82/138/3 81/132/3
f 153/139/7 50/140/7 59/141/7 175/142/7
f 175/142/7 59/141/7 60/143/7 176/144/7
f 184/57/2 73/60/2 57/145/2 157/146/2
f 157/146/2 57/145/2 58/94/2 158/93/2
f 51/112/3 91/111/3 59/147/3 50/148/3
f 91/111/3 92/149/3 60/150/3 59/147/3
f 92/149/3 80/66/3 74/65/3 60/150/3
f 176/144/7 60/143/7 74/68/7 177/67/7
f 57/137/3 73/70/3 75/69/3 82/138/3
f 82/138/3 75/69/3 76/71/3 84/129/3
f 84/129/3 76/71/3 77/72/3 86/130/3
f 86/130/3 77/72/3 78/73/3 88/119/3
f 88/119/3 78/73/3 79/74/3 90/120/3
f 90/120/3 79/74/3 80/66/3 92/149/3
f 61/151/8 81/132/8 82/138/8 62/152/8
f 64/153/9 84/129/9 83/128/9 63/154/9
f 65/134/8 85/122/8 86/130/8 66/126/8
f 68/123/9 88/119/9 87/118/9 67/155/9
f 69/113/8 89/110/8 90/120/8 70/156/8
f 72/157/9 92/149/9 91/111/9 71/116/9
f 71/116/11 91/111/11 89/110/11 69/113/11
f 70/156/10 90/120/10 92/149/10 72/157/10
f 67/155/11 87/118/11 85/122/11 65/134/11
f 66/126/10 86/130/10 88/119/10 68/123/10
f 63/154/11 83/128/11 81/132/11 61/151/11
f 62/152/10 82/138/10 84/129/10 64/153/10
f 101/114/3 102/158/3 104/159/3 103/115/3
f 97/133/3 98/125/3 100/124/3 99/160/3
f 93/161/3 94/162/3 96/163/3 95/164/3
f 67/155/12 99/160/12 100/124/12 68/123/12
f 61/151/14 93/161/14 95/164/14 63/154/14
f 62/152/13 94/162/13 93/161/13 61/151/13
f 72/157/4 104/159/4 102/158/4 70/156/4
f 70/156/15 102/158/15 101/114/15 69/113/15
f 64/153/4 96/163/4 94/162/4 62/152/4
f 63/154/16 95/164/16 96/163/16 64/153/16
f 65/134/5 97/133/5 99/160/5 67/155/5
f 71/116/18 103/115/18 104/159/18 72/157/18
f 108/165/20 137/166/20 139/167/20 107/168/20
f 122/169/21 149/170/21 151/171/21 124/172/21
f 109/173/20 135/174/20 137/166/20 108/165/20
f 135/174/20 136/175/20 138/176/20 137/166/20
f 110/177/20 133/178/20 135/174/20 109/173/20
f 121/179/22 148/180/22 146/181/22 119/182/22
f 111/183/20 131/184/20 133/178/20 110/177/20
f 131/184/20 132/185/20 134/186/20 133/178/20
f 126/187/20 129/188/20 131/184/20 111/183/20
f 119/182/23 146/181/23 145/189/23 118/190/23
f 105/191/20 112/192/20 129/188/20 126/187/20
f 112/192/20 128/193/20 130/194/20 129/188/20
f 107/168/20 139/167/20 127/195/20 106/196/20
f 139/167/20 140/197/20 113/198/20 127/195/20
f 140/197/20 183/199/20 177/200/20 113/198/20
f 128/193/20 184/201/20 178/202/20 130/194/20
f 130/194/20 178/202/20 179/203/20 132/185/20
f 132/185/20 179/203/20 180/204/20 134/186/20
f 134/186/20 180/204/20 181/205/20 136/175/20
f 136/175/20 181/205/20 182/206/20 138/176/20
f 138/176/20 182/206/20 183/199/20 140/197/20
f 114/207/24 129/188/24 130/194/24 115/208/24
f 117/209/25 132/185/25 131/184/25 116/210/25
f 118/190/24 133/178/24 134/186/24 119/182/24
f 121/179/25 136/175/25 135/174/25 120/211/25
f 122/169/24 137/166/24 138/176/24 123/212/24
f 125/213/25 140/197/25 139/167/25 124/172/25
f 124/172/26 139/167/26 137/166/26 122/169/26
f 123/212/27 138/176/27 140/197/27 125/213/27
f 120/211/26 135/174/26 133/178/26 118/190/26
f 119/182/27 134/186/27 136/175/27 121/179/27
f 116/210/26 131/184/26 129/188/26 114/207/26
f 115/208/27 130/194/27 132/185/27 117/209/27
f 149/170/20 150/214/20 152/215/20 151/171/20
f 145/189/20 146/181/20 148/180/20 147/216/20
f 141/217/20 142/218/20 144/219/20 143/220/20
f 120/211/28 147/216/28 148/180/28 121/179/28
f 114/207/21 141/217/21 143/220/21 116/210/21
f 115/208/29 142/218/29 141/217/29 114/207/29
f 125/213/30 152/215/30 150/214/30 123/212/30
f 123/212/31 150/214/31 149/170/31 122/169/31
f 117/209/30 144/219/30 142/218/30 115/208/30
f 116/210/32 143/220/32 144/219/32 117/209/32
f 118/190/33 145/189/33 147/216/33 120/211/33
f 124/172/34 151/171/34 152/215/34 125/213/34
f 173/221/20 174/222/20 195/223/20 193/224/20
f 167/225/30 169/226/30 207/227/30 205/228/30
f 154/229/20 173/221/20 193/224/20 191/230/20
f 191/230/20 193/224/20 194/231/20 192/232/20
f 155/233/20 154/229/20 191/230/20 189/234/20
f 166/235/33 164/236/33 202/237/33 204/238/33
f 156/239/20 155/233/20 189/234/20 187/240/20
f 187/240/20 189/234/20 190/241/20 188/242/20
f 172/243/20 156/239/20 187/240/20 185/244/20
f 164/236/23 163/245/23 201/246/23 202/237/23
f 171/247/20 172/243/20 185/244/20 158/248/20
f 158/248/20 185/244/20 186/249/20 157/250/20
f 174/222/20 153/251/20 175/252/20 195/223/20
f 195/223/20 175/252/20 176/253/20 196/254/20
f 196/254/20 176/253/20 177/200/20 183/199/20
f 157/250/20 186/249/20 178/202/20 184/201/20
f 186/249/20 188/242/20 179/203/20 178/202/20
f 188/242/20 190/241/20 180/204/20 179/203/20
f 190/241/20 192/232/20 181/205/20 180/204/20
f 192/232/20 194/231/20 182/206/20 181/205/20
f 194/231/20 196/254/20 183/199/20 182/206/20
f 159/255/24 160/256/24 186/249/24 185/244/24
f 162/257/25 161/258/25 187/240/25 188/242/25
f 163/245/24 164/236/24 190/241/24 189/234/24
f 166/235/25 165/259/25 191/230/25 192/232/25
f 167/225/24 168/260/24 194/231/24 193/224/24
f 170/261/25 169/226/25 195/223/25 196/254/25
f 169/226/27 167/225/27 193/224/27 195/223/27
f 168/260/26 170/261/26 196/254/26 194/231/26
f 165/259/27 163/245/27 189/234/27 191/230/27
f 164/236/26 166/235/26 192/232/26 190/241/26
f 161/258/27 159/255/27 185/244/27 187/240/27
f 160/256/26 162/257/26 188/242/26 186/249/26
f 205/228/20 207/227/20 208/262/20 206/263/20
f 201/246/20 203/264/20 204/238/20 202/237/20
f 197/265/20 199/266/20 200/267/20 198/268/20
f 165/259/28 166/235/28 204/238/28 203/264/28
f 159/255/30 161/258/30 199/266/30 197/265/30
f 160/256/29 159/255/29 197/265/29 198/268/29
f 170/261/21 168/260/21 206/263/21 208/262/21
f 168/260/31 167/225/31 205/228/31 206/263/31
f 162/257/21 160/256/21 198/268/21 200/267/21
f 161/258/32 162/257/32 200/267/32 199/266/32
f 163/245/22 165/259/22 203/264/22 201/246/22
f 169/226/34 170/261/34 208/262/34 207/227/34
